<svg xmlns="http://www.w3.org/2000/svg" viewBox="0 0 512 512" width="512" height="512">
  <defs>
    <linearGradient id="g" x1="0" y1="0" x2="1" y2="1">
      <stop offset="0" stop-color="#8f7cff"/>
      <stop offset="55%" stop-color="#c9a4ff"/>
      <stop offset="100%" stop-color="#8fd8ff"/>
    </linearGradient>
  </defs>
  <rect width="512" height="512" rx="116" fill="url(#g)"/>
  <path fill="#fff" fill-opacity=".95"
        d="M256 396c-8 0-15-3-21-9l-96-96c-31-31-31-82 0-113 30-30 79-31 111-3l6 6 6-6c32-28 81-27 111 3 31 31 31 82 0 113l-96 96c-6 6-13 9-21 9z"/>
  <circle cx="256" cy="252" r="46" fill="#7c6cf7" fill-opacity=".9"/>
  <text x="256" y="270" text-anchor="middle" font-family="Segoe UI,Arial,sans-serif"
        font-size="52" font-weight="700" fill="#fff">R$</text>
</svg>
